#define 9ce0c857754b49c2bdd2a4c53eb2cad15zDoJKJwbYmii9tm_width 128
#define 9ce0c857754b49c2bdd2a4c53eb2cad15zDoJKJwbYmii9tm_height 128
static char 9ce0c857754b49c2bdd2a4c53eb2cad15zDoJKJwbYmii9tm_bits[] = {
  0x00, 0x00, 0x00, 0x00, 0x00, 0x00, 0x00, 0x00, 0x00, 0x00, 0x00, 0x00, 
  0x00, 0x00, 0x00, 0x00, 0x00, 0x00, 0x00, 0x00, 0x00, 0x00, 0x00, 0x00, 
  0x00, 0x00, 0x00, 0x00, 0x00, 0x00, 0x00, 0x00, 0x00, 0x00, 0x00, 0x00, 
  0x00, 0x00, 0x00, 0x00, 0x00, 0x00, 0x00, 0x00, 0x00, 0x00, 0x00, 0x00, 
  0x00, 0x00, 0x00, 0x00, 0x00, 0x00, 0x00, 0x00, 0x00, 0x00, 0x00, 0x00, 
  0x00, 0x00, 0x00, 0x00, 0x00, 0x00, 0x00, 0x00, 0x00, 0x00, 0x00, 0x00, 
  0x00, 0x00, 0x00, 0x00, 0x00, 0x00, 0x00, 0x00, 0x00, 0x00, 0x00, 0x00, 
  0x00, 0x00, 0x00, 0x00, 0x00, 0x00, 0x00, 0x00, 0x00, 0x00, 0x00, 0x00, 
  0x00, 0x00, 0x00, 0x00, 0x00, 0x00, 0x00, 0x00, 0x00, 0x00, 0x00, 0x00, 
  0x00, 0x00, 0x00, 0x00, 0x00, 0x00, 0x00, 0x00, 0x00, 0x00, 0x00, 0x00, 
  0x00, 0x00, 0x00, 0x00, 0x00, 0x00, 0x00, 0x00, 0x00, 0x00, 0x00, 0x00, 
  0x00, 0x00, 0x00, 0x00, 0x00, 0x00, 0x00, 0x00, 0x00, 0x00, 0x00, 0x00, 
  0x00, 0x00, 0x00, 0x00, 0x00, 0x00, 0x00, 0x20, 0x00, 0x00, 0x00, 0x00, 
  0x00, 0x00, 0x00, 0x00, 0x00, 0x00, 0x00, 0x00, 0x00, 0x00, 0x10, 0xE5, 
  0x84, 0x00, 0x00, 0x00, 0x00, 0x00, 0x00, 0x00, 0x00, 0x00, 0x00, 0x00, 
  0x00, 0x80, 0xC2, 0x24, 0x52, 0x06, 0x00, 0x00, 0x00, 0x00, 0x00, 0x00, 
  0x00, 0x00, 0x00, 0x00, 0x00, 0x10, 0x26, 0x56, 0x42, 0x95, 0x01, 0x00, 
  0x00, 0x00, 0x00, 0x00, 0x00, 0x00, 0x00, 0x00, 0x00, 0x40, 0x40, 0x09, 
  0x99, 0x62, 0x09, 0x00, 0x00, 0x00, 0x00, 0x00, 0x00, 0x00, 0x00, 0x00, 
  0x80, 0x68, 0x59, 0x52, 0xA4, 0xA9, 0x25, 0x00, 0x00, 0x00, 0x00, 0x00, 
  0x00, 0x00, 0x00, 0x00, 0x00, 0x25, 0xA6, 0x89, 0x5B, 0x56, 0x52, 0x00, 
  0x00, 0x00, 0x00, 0x00, 0x00, 0x00, 0x00, 0x00, 0x48, 0x94, 0xA6, 0x42, 
  0x4A, 0x6A, 0x51, 0x02, 0x00, 0x00, 0x00, 0x00, 0x00, 0x00, 0x00, 0x00, 
  0x10, 0x49, 0xD9, 0xB0, 0xA5, 0x95, 0x96, 0x09, 0x00, 0x00, 0x00, 0x00, 
  0x00, 0x00, 0x00, 0x00, 0x81, 0x69, 0x20, 0x69, 0x5A, 0xA6, 0x6D, 0x2A, 
  0x00, 0x00, 0x00, 0x00, 0x00, 0x00, 0x00, 0x00, 0x6C, 0x94, 0x56, 0x94, 
  0xA5, 0x5B, 0xDA, 0x15, 0x00, 0x00, 0x00, 0x00, 0x00, 0x00, 0x00, 0x40, 
  0x91, 0x29, 0x05, 0x55, 0x55, 0x65, 0xA6, 0x5B, 0x00, 0x00, 0x00, 0x00, 
  0x00, 0x00, 0x00, 0x40, 0x24, 0x45, 0x56, 0x8A, 0xAA, 0xBA, 0x9D, 0xA6, 
  0x01, 0x00, 0x00, 0x00, 0x00, 0x00, 0x00, 0x28, 0xA6, 0x94, 0x83, 0xA4, 
  0x61, 0x65, 0x65, 0x99, 0x07, 0x00, 0x00, 0x00, 0x00, 0x00, 0x00, 0x88, 
  0x92, 0x69, 0x44, 0x5B, 0xB6, 0x5A, 0xDA, 0x76, 0x04, 0x00, 0x00, 0x00, 
  0x00, 0x00, 0x00, 0x48, 0x6D, 0xC6, 0x50, 0xA9, 0x55, 0xD5, 0xDB, 0xDC, 
  0x15, 0x00, 0x00, 0x00, 0x00, 0x00, 0x00, 0x69, 0x00, 0x38, 0xA8, 0x96, 
  0xAA, 0x6A, 0x56, 0x57, 0x27, 0x00, 0x00, 0x00, 0x00, 0x00, 0x00, 0x90, 
  0x96, 0x65, 0xA1, 0x49, 0x98, 0x9E, 0xE6, 0xB7, 0x6C, 0x00, 0x00, 0x00, 
  0x00, 0x00, 0x40, 0x26, 0x69, 0x12, 0x56, 0xA2, 0x5B, 0x65, 0x3B, 0xEC, 
  0xD7, 0x00, 0x00, 0x00, 0x00, 0x00, 0xA0, 0x29, 0x62, 0x14, 0x49, 0x5A, 
  0xAA, 0xAA, 0xF6, 0x7B, 0xB7, 0x00, 0x00, 0x00, 0x00, 0x00, 0x20, 0x94, 
  0x16, 0x87, 0x62, 0xA6, 0x55, 0xDD, 0x99, 0x5D, 0xAC, 0x03, 0x00, 0x00, 
  0x00, 0x00, 0x40, 0x66, 0x81, 0x43, 0x9A, 0x69, 0xAA, 0x45, 0x3D, 0xF3, 
  0xEB, 0x05, 0x00, 0x00, 0x00, 0x00, 0x14, 0x49, 0xAC, 0x20, 0x49, 0x94, 
  0x55, 0xBA, 0xE6, 0xAE, 0x7D, 0x05, 0x00, 0x00, 0x00, 0x00, 0x20, 0x29, 
  0xCB, 0xB0, 0xAD, 0x44, 0xAA, 0x6A, 0xB9, 0x57, 0x6F, 0x17, 0x00, 0x00, 
  0x00, 0x00, 0x5A, 0x96, 0x30, 0x04, 0x40, 0x99, 0x55, 0xDD, 0xC6, 0xFC, 
  0xF6, 0x1A, 0x00, 0x00, 0x00, 0x00, 0xC9, 0x69, 0x54, 0x62, 0x56, 0xA4, 
  0xAA, 0xA6, 0xBF, 0xFF, 0x6D, 0x36, 0x00, 0x00, 0x00, 0x00, 0x22, 0x22, 
  0x0B, 0x99, 0xA9, 0x5B, 0x55, 0x69, 0xD9, 0x99, 0xFF, 0x2F, 0x00, 0x00, 
  0x00, 0x00, 0x9D, 0xAA, 0x06, 0x81, 0x92, 0x96, 0xAA, 0xD5, 0x3D, 0xF7, 
  0xDF, 0x7E, 0x00, 0x00, 0x00, 0x40, 0x40, 0x59, 0x89, 0x6C, 0x26, 0x69, 
  0x55, 0xAE, 0xE6, 0xAE, 0xFD, 0xC7, 0x00, 0x00, 0x00, 0x00, 0x96, 0x44, 
  0x21, 0x05, 0x98, 0x54, 0x7A, 0x6B, 0xE7, 0xFB, 0xFA, 0x7F, 0x00, 0x00, 
  0x00, 0xA0, 0xA9, 0xA9, 0x90, 0xB1, 0x65, 0xAA, 0xA5, 0xD4, 0x3C, 0x5D, 
  0x7F, 0x76, 0x00, 0x00, 0x00, 0xA0, 0x52, 0x69, 0x48, 0x26, 0x6D, 0xA5, 
  0x56, 0x5B, 0xCD, 0xEB, 0xFB, 0xDB, 0x00, 0x00, 0x00, 0x00, 0xA9, 0x24, 
  0x30, 0x98, 0x90, 0x5A, 0xE9, 0x66, 0xBB, 0xFD, 0xBF, 0x3F, 0x00, 0x00, 
  0x00, 0x40, 0x5A, 0x19, 0x89, 0x61, 0x4A, 0xA5, 0xB2, 0xF9, 0xEC, 0x7F, 
  0xFF, 0x5F, 0x02, 0x00, 0x00, 0xB0, 0xA5, 0x1A, 0x6A, 0x46, 0x95, 0x52, 
  0x4D, 0x9D, 0xB7, 0xE5, 0xDD, 0x17, 0x06, 0x00, 0x00, 0x40, 0x5A, 0x85, 
  0x4B, 0x99, 0x55, 0xAA, 0xDA, 0xE6, 0x77, 0xFD, 0xFF, 0x0F, 0x05, 0x00, 
  0x00, 0x98, 0x35, 0x46, 0x90, 0x62, 0x2A, 0x55, 0x65, 0x39, 0xEC, 0x6F, 
  0xDF, 0x17, 0x07, 0x00, 0x00, 0x54, 0xAA, 0x62, 0x54, 0x9A, 0x98, 0xAA, 
  0x99, 0xDB, 0xEF, 0xFA, 0xFF, 0xAB, 0x0F, 0x00, 0x00, 0xA8, 0x55, 0x23, 
  0x2B, 0x49, 0x65, 0x55, 0x6E, 0xB6, 0x79, 0xFF, 0xFE, 0xC7, 0x0D, 0x00, 
  0x00, 0x94, 0xA9, 0x91, 0x4A, 0x65, 0x29, 0xEA, 0xDD, 0xCD, 0xF5, 0xBF, 
  0xFF, 0xC7, 0x0F, 0x00, 0x00, 0x68, 0x56, 0x68, 0x99, 0x98, 0x95, 0x95, 
  0x66, 0x7B, 0xAF, 0xFD, 0xFF, 0xEB, 0x19, 0x00, 0x00, 0xB2, 0x6D, 0x85, 
  0x44, 0x2A, 0x58, 0x4A, 0x59, 0x5C, 0xBD, 0xBF, 0xFF, 0xF1, 0x1F, 0x00, 
  0x00, 0x5C, 0x36, 0x70, 0xBA, 0x55, 0xA7, 0xB5, 0xDA, 0xF7, 0xF5, 0xF7, 
  0xFF, 0xF1, 0x1F, 0x00, 0x00, 0x6A, 0x3B, 0xAA, 0xAA, 0x5D, 0xD6, 0x6D, 
  0xAF, 0xAE, 0x7D, 0xFD, 0xFF, 0xF8, 0x1E, 0x00, 0x00, 0xB6, 0x44, 0x55, 
  0x54, 0xA2, 0x69, 0xB6, 0x69, 0xF3, 0xEF, 0xFB, 0xFF, 0xF9, 0x3F, 0x00, 
  0x00, 0x6D, 0x1B, 0xAA, 0xA9, 0x15, 0xB6, 0x65, 0xB3, 0xBF, 0xF9, 0xFF, 
  0xFF, 0xF8, 0x3F, 0x00, 0x00, 0x51, 0x8D, 0x55, 0x56, 0xEA, 0x49, 0x5A, 
  0xDE, 0xD5, 0xFF, 0xFF, 0x7F, 0xFD, 0x37, 0x00, 0x00, 0xDC, 0xC4, 0xAA, 
  0xAB, 0x5A, 0x64, 0xDD, 0x79, 0xFB, 0xDF, 0xFF, 0xFF, 0xFC, 0x3B, 0x00, 
  0x00, 0x96, 0x8B, 0x55, 0x55, 0xA5, 0x9B, 0x96, 0xDF, 0xDD, 0xBE, 0xFF, 
  0x3F, 0xFE, 0x7F, 0x00, 0x00, 0x69, 0x65, 0x66, 0x6B, 0x59, 0x66, 0xB6, 
  0xEA, 0xBF, 0xFB, 0xFF, 0x7F, 0xFE, 0x7F, 0x00, 0x80, 0xB6, 0xC6, 0xBB, 
  0xD4, 0xAA, 0xBD, 0x6B, 0xAE, 0xE5, 0xFF, 0xFF, 0x3F, 0xFF, 0x6F, 0x00, 
  0x00, 0xAD, 0x73, 0x6E, 0x69, 0xA9, 0xAA, 0xED, 0xFF, 0xFD, 0xFF, 0xFF, 
  0x3F, 0xFF, 0x7F, 0x00, 0x80, 0xDA, 0x45, 0x9A, 0xAE, 0x5F, 0x6E, 0x6B, 
  0xA5, 0xFF, 0xFF, 0xFF, 0x4F, 0xFF, 0x5F, 0x00, 0x80, 0x3B, 0xD3, 0xD3, 
  0xB7, 0xD6, 0xF7, 0xFC, 0xFD, 0x77, 0xFF, 0xFF, 0x9F, 0xFF, 0x7F, 0x00, 
  0x00, 0xE6, 0x70, 0x6E, 0x69, 0x69, 0x99, 0x97, 0xD7, 0xFE, 0xFF, 0xFF, 
  0x8F, 0xFF, 0x7F, 0x00, 0x80, 0x99, 0x91, 0xEE, 0x69, 0x9D, 0xEE, 0x5F, 
  0xEF, 0xFB, 0xFF, 0xFF, 0xA7, 0xFF, 0x7F, 0x00, 0x80, 0xE6, 0xFC, 0x33, 
  0xBF, 0xE3, 0x33, 0xF2, 0xFD, 0xFD, 0xFF, 0xFF, 0xCF, 0xFF, 0x7F, 0x00, 
  0x00, 0x7D, 0x69, 0x9D, 0x96, 0x7A, 0xDD, 0xEF, 0xFA, 0xFF, 0xFF, 0xFF, 
  0xD7, 0xFF, 0x7F, 0x00, 0x80, 0xDA, 0x70, 0xFB, 0xF6, 0x6E, 0x7B, 0xB5, 
  0xDF, 0xFF, 0xFF, 0xFF, 0xE7, 0xFF, 0x7F, 0x00, 0x80, 0x6B, 0xBD, 0x3B, 
  0x37, 0xBD, 0xBA, 0xED, 0xFF, 0xFF, 0xFF, 0xFF, 0xE3, 0xFF, 0x7F, 0x00, 
  0x00, 0x79, 0xD8, 0xEE, 0xED, 0xE7, 0xDF, 0xFB, 0xFF, 0xFF, 0xFF, 0xFF, 
  0xEB, 0xFF, 0x7F, 0x00, 0x80, 0x5D, 0xFC, 0x7B, 0xA5, 0xAE, 0xFB, 0xFF, 
  0xFF, 0xFF, 0xFF, 0xFF, 0xF1, 0xFF, 0x7F, 0x00, 0x80, 0xD6, 0x55, 0xED, 
  0xFF, 0xF7, 0xDD, 0xDE, 0xB7, 0xFF, 0xFF, 0xFF, 0xF9, 0xFF, 0x7F, 0x00, 
  0x00, 0x6E, 0xD8, 0xEB, 0xD6, 0x9F, 0xDE, 0xFD, 0xFF, 0xFF, 0xFF, 0xFF, 
  0xF8, 0xFF, 0x3F, 0x00, 0x00, 0xB9, 0xFD, 0xBD, 0xBF, 0xFA, 0xF7, 0xFF, 
  0xFF, 0xFF, 0xFF, 0xFF, 0xF9, 0xFF, 0x7F, 0x00, 0x00, 0x2E, 0x9E, 0xFF, 
  0xFE, 0xDF, 0xFF, 0xBF, 0xFF, 0xFF, 0xFF, 0x7F, 0xFA, 0xFF, 0x1F, 0x00, 
  0x00, 0x7B, 0xF4, 0xAB, 0xD7, 0xFD, 0xBD, 0xFF, 0xFF, 0xFF, 0xFF, 0x7F, 
  0xFC, 0xFF, 0x3F, 0x00, 0x00, 0xE6, 0xD4, 0x6F, 0xF7, 0xF7, 0xFD, 0xFF, 
  0xFF, 0xFF, 0xFF, 0xFF, 0xFC, 0xFF, 0x3F, 0x00, 0x00, 0x3B, 0xFD, 0xF5, 
  0xAE, 0x7D, 0xBF, 0xFF, 0xFF, 0xFF, 0xFF, 0x3F, 0xFE, 0xFF, 0x3F, 0x00, 
  0x00, 0x74, 0xFC, 0xF7, 0xFF, 0xDF, 0xFF, 0xFF, 0xFF, 0xFF, 0xFF, 0xBF, 
  0xFE, 0xFF, 0x1F, 0x00, 0x00, 0x5A, 0x79, 0xFF, 0xEF, 0xFF, 0xFF, 0xFF, 
  0xFF, 0xFF, 0xFF, 0x3F, 0xFF, 0xFF, 0x1F, 0x00, 0x00, 0x74, 0xFA, 0xF7, 
  0xED, 0xFF, 0xFF, 0xFF, 0xFF, 0xFF, 0xFF, 0x3F, 0xFF, 0xFF, 0x1F, 0x00, 
  0x00, 0xD6, 0x7E, 0x7F, 0xFF, 0xFB, 0xFF, 0xFF, 0xFF, 0xFF, 0xFF, 0x1F, 
  0xFF, 0xFF, 0x1F, 0x00, 0x00, 0xAC, 0xE8, 0x7F, 0xFF, 0xFF, 0xFF, 0xFF, 
  0xFF, 0xFF, 0xFF, 0x8F, 0xFF, 0xFF, 0x0F, 0x00, 0x00, 0xB4, 0xFA, 0xFF, 
  0xFF, 0xFF, 0xFF, 0xFF, 0xFF, 0xFF, 0xFF, 0xAF, 0xFF, 0xFF, 0x0F, 0x00, 
  0x00, 0xB4, 0xE1, 0xFD, 0xFB, 0xFF, 0xFF, 0xFF, 0xFF, 0xFF, 0xFF, 0xC7, 
  0xFF, 0xFF, 0x0F, 0x00, 0x00, 0xE8, 0xF9, 0xFF, 0xFF, 0xFF, 0xFF, 0xFF, 
  0xFF, 0xFF, 0xFF, 0xCF, 0xFF, 0xFF, 0x07, 0x00, 0x00, 0xA8, 0xF4, 0xFF, 
  0xFF, 0xFF, 0xFF, 0xFF, 0xFF, 0xFF, 0xFF, 0xD7, 0xFF, 0xFF, 0x07, 0x00, 
  0x00, 0xB0, 0xE3, 0xFF, 0xFF, 0xFF, 0xFF, 0xFF, 0xFF, 0xFF, 0xFF, 0xCB, 
  0xFF, 0xFF, 0x07, 0x00, 0x00, 0xA0, 0xF1, 0xFF, 0xFF, 0xFF, 0xFF, 0xFF, 
  0xFF, 0xFF, 0xFF, 0xE3, 0xFF, 0xFF, 0x03, 0x00, 0x00, 0xE0, 0xC5, 0xFF, 
  0xFF, 0xFF, 0xFF, 0xFF, 0xFF, 0xFF, 0xFF, 0xF7, 0xFF, 0xFF, 0x01, 0x00, 
  0x00, 0xA0, 0xC7, 0xFF, 0xFF, 0xFF, 0xFF, 0xFF, 0xFF, 0xFF, 0xFF, 0xF1, 
  0xFF, 0xFF, 0x01, 0x00, 0x00, 0x80, 0xDD, 0xFF, 0xFF, 0xFF, 0xFF, 0xFF, 
  0xFF, 0xFF, 0xFF, 0xF2, 0xFF, 0xFF, 0x01, 0x00, 0x00, 0xC0, 0x85, 0xFF, 
  0xFF, 0xFF, 0xFF, 0xFF, 0xFF, 0xFF, 0xFF, 0xF9, 0xFF, 0xFF, 0x00, 0x00, 
  0x00, 0x80, 0x3D, 0xFF, 0xFF, 0xFF, 0xFF, 0xFF, 0xFF, 0xFF, 0x7F, 0xFC, 
  0xFF, 0x7F, 0x00, 0x00, 0x00, 0x80, 0x9F, 0xFF, 0xFF, 0xFF, 0xFF, 0xFF, 
  0xFF, 0xFF, 0xFF, 0xFC, 0xFF, 0x7F, 0x00, 0x00, 0x00, 0x00, 0xB5, 0xFE, 
  0xFF, 0xFF, 0xFF, 0xFF, 0xFF, 0xFF, 0x7F, 0xFD, 0xFF, 0x3F, 0x00, 0x00, 
  0x00, 0x00, 0x3A, 0xFE, 0xFF, 0xFF, 0xFF, 0xFF, 0xFF, 0xFF, 0x7F, 0xFE, 
  0xFF, 0x3F, 0x00, 0x00, 0x00, 0x00, 0x7A, 0xF8, 0xFF, 0xFF, 0xFF, 0xFF, 
  0xFF, 0xFF, 0x3F, 0xFF, 0xFF, 0x1F, 0x00, 0x00, 0x00, 0x00, 0x6C, 0xF9, 
  0xFF, 0xFF, 0xFF, 0xFF, 0xFF, 0xFF, 0x2F, 0xFF, 0xFF, 0x0F, 0x00, 0x00, 
  0x00, 0x00, 0xF8, 0xF5, 0xFF, 0xFF, 0xFF, 0xFF, 0xFF, 0xFF, 0x8F, 0xFF, 
  0xFF, 0x07, 0x00, 0x00, 0x00, 0x00, 0xF0, 0xF3, 0xFF, 0xFF, 0xFF, 0xFF, 
  0xFF, 0xFF, 0xAF, 0xFF, 0xFF, 0x07, 0x00, 0x00, 0x00, 0x00, 0x50, 0x87, 
  0xFF, 0xFF, 0xFF, 0xFF, 0xFF, 0xFF, 0xC7, 0xFF, 0xFF, 0x03, 0x00, 0x00, 
  0x00, 0x00, 0xC0, 0x8F, 0xFF, 0xFF, 0xFF, 0xFF, 0xFF, 0xFF, 0xE3, 0xFF, 
  0xFF, 0x01, 0x00, 0x00, 0x00, 0x00, 0xC0, 0x3F, 0xFF, 0xFF, 0xFF, 0xFF, 
  0xFF, 0xFF, 0xF4, 0xFF, 0xFF, 0x00, 0x00, 0x00, 0x00, 0x00, 0x80, 0x3E, 
  0xFC, 0xFF, 0xFF, 0xFF, 0xFF, 0x7F, 0xFA, 0xFF, 0x7F, 0x00, 0x00, 0x00, 
  0x00, 0x00, 0x00, 0xFF, 0xF1, 0xFF, 0xFF, 0xFF, 0xFF, 0xFF, 0xFC, 0xFF, 
  0x3F, 0x00, 0x00, 0x00, 0x00, 0x00, 0x00, 0xF4, 0xC5, 0xFF, 0xFF, 0xFF, 
  0xFF, 0x3F, 0xFE, 0xFF, 0x1F, 0x00, 0x00, 0x00, 0x00, 0x00, 0x00, 0xDC, 
  0xA3, 0xFF, 0xFF, 0xFF, 0xFF, 0x1F, 0xFF, 0xFF, 0x0F, 0x00, 0x00, 0x00, 
  0x00, 0x00, 0x00, 0x70, 0x07, 0xFF, 0xFF, 0xFF, 0xFF, 0xCB, 0xFF, 0xFF, 
  0x07, 0x00, 0x00, 0x00, 0x00, 0x00, 0x00, 0xE0, 0x3F, 0xF0, 0xFF, 0xFF, 
  0xFF, 0xE3, 0xFF, 0xFF, 0x63, 0x00, 0x00, 0x00, 0x00, 0x00, 0x00, 0xC0, 
  0x7F, 0x91, 0xFF, 0xFF, 0xFF, 0xF8, 0xFF, 0xFF, 0x03, 0x00, 0x00, 0x00, 
  0x00, 0x00, 0x00, 0x00, 0xFF, 0x89, 0xFF, 0xFF, 0x2F, 0xFC, 0xFF, 0x7F, 
  0x28, 0x00, 0x00, 0x00, 0x00, 0x00, 0x00, 0x00, 0xFE, 0x4F, 0xE9, 0xFF, 
  0x45, 0xFE, 0xFF, 0xBF, 0x50, 0x00, 0x00, 0x00, 0x00, 0x00, 0x00, 0x00, 
  0xD8, 0x3F, 0x00, 0x08, 0xE1, 0xFF, 0xFF, 0x1F, 0x0B, 0x42, 0x00, 0x00, 
  0x00, 0x00, 0x00, 0x00, 0xF0, 0xFF, 0x01, 0x14, 0xF6, 0xFF, 0xFF, 0x97, 
  0x42, 0x25, 0x00, 0x00, 0x00, 0x00, 0x00, 0x00, 0x80, 0xFF, 0xFF, 0xC1, 
  0xFF, 0xFF, 0xFF, 0x2A, 0x24, 0x00, 0x00, 0x00, 0x00, 0x00, 0x00, 0x00, 
  0x00, 0xFE, 0xFF, 0xFF, 0xFF, 0xFF, 0x3F, 0x65, 0x95, 0x01, 0x00, 0x00, 
  0x00, 0x00, 0x00, 0x00, 0x00, 0xF8, 0xFF, 0xFF, 0xFF, 0xFF, 0xDF, 0x8A, 
  0x04, 0x88, 0x00, 0x00, 0x00, 0x00, 0x00, 0x00, 0x00, 0xE8, 0xFF, 0xFF, 
  0xFF, 0xFF, 0x63, 0x54, 0x60, 0x02, 0x00, 0x00, 0x00, 0x00, 0x00, 0x00, 
  0x00, 0x00, 0xFF, 0xFF, 0xFF, 0xBF, 0x0C, 0x02, 0x05, 0x00, 0x00, 0x00, 
  0x00, 0x00, 0x00, 0x00, 0x00, 0x00, 0xE0, 0xFF, 0xFF, 0x33, 0xA0, 0x19, 
  0x04, 0x00, 0x00, 0x00, 0x00, 0x00, 0x00, 0x00, 0x00, 0x00, 0x00, 0x54, 
  0x25, 0x44, 0x05, 0x00, 0x00, 0x00, 0x00, 0x00, 0x00, 0x00, 0x00, 0x00, 
  0x00, 0x00, 0x00, 0x00, 0x20, 0x12, 0x80, 0x00, 0x00, 0x00, 0x00, 0x00, 
  0x00, 0x00, 0x00, 0x00, 0x00, 0x00, 0x00, 0x00, 0x00, 0x00, 0x00, 0x00, 
  0x00, 0x00, 0x00, 0x00, 0x00, 0x00, 0x00, 0x00, 0x00, 0x00, 0x00, 0x00, 
  0x00, 0x00, 0x00, 0x00, 0x00, 0x00, 0x00, 0x00, 0x00, 0x00, 0x00, 0x00, 
  0x00, 0x00, 0x00, 0x00, 0x00, 0x00, 0x00, 0x00, 0x00, 0x00, 0x00, 0x00, 
  0x00, 0x00, 0x00, 0x00, 0x00, 0x00, 0x00, 0x00, 0x00, 0x00, 0x00, 0x00, 
  0x00, 0x00, 0x00, 0x00, 0x00, 0x00, 0x00, 0x00, 0x00, 0x00, 0x00, 0x00, 
  0x00, 0x00, 0x00, 0x00, 0x00, 0x00, 0x00, 0x00, };
